<svg width="24" height="24" viewBox="0 0 24 24" fill="none" xmlns="http://www.w3.org/2000/svg">
<path d="M17 7.55554V14.7775C17 14.9249 16.9415 15.0662 16.8373 15.1704C16.7331 15.2745 16.5918 15.3331 16.4445 15.3331C16.2971 15.3331 16.1558 15.2745 16.0516 15.1704C15.9475 15.0662 15.8889 14.9249 15.8889 14.7775V8.89647L7.94889 16.8372C7.84465 16.9414 7.70327 17 7.55585 17C7.40843 17 7.26705 16.9414 7.1628 16.8372C7.05856 16.733 7 16.5916 7 16.4442C7 16.2967 7.05856 16.1554 7.1628 16.0511L15.1035 8.11108H9.22246C9.07512 8.11108 8.93382 8.05255 8.82964 7.94836C8.72545 7.84418 8.66692 7.70288 8.66692 7.55554C8.66692 7.4082 8.72545 7.2669 8.82964 7.16271C8.93382 7.05853 9.07512 7 9.22246 7H16.4445C16.5918 7 16.7331 7.05853 16.8373 7.16271C16.9415 7.2669 17 7.4082 17 7.55554Z" fill="#432004"/>
</svg>
