<svg width="24" height="25" viewBox="0 0 24 25" fill="none" xmlns="http://www.w3.org/2000/svg">
<g clip-path="url(#clip0_243_3527)">
<path d="M9 21.2275C9 21.7275 9.4 22.2275 10 22.2275H14C14.6 22.2275 15 21.7275 15 21.2275V20.2275H9V21.2275ZM12 2.22754C8.1 2.22754 5 5.32754 5 9.22754C5 11.6275 6.2 13.7275 8 14.9275V17.2275C8 17.7275 8.4 18.2275 9 18.2275H15C15.6 18.2275 16 17.7275 16 17.2275V14.9275C17.8 13.6275 19 11.5275 19 9.22754C19 5.32754 15.9 2.22754 12 2.22754Z" fill="#FBBF24"/>
</g>
<defs>
<clipPath id="clip0_243_3527">
<rect width="24" height="24" fill="white" transform="translate(0 0.227539)"/>
</clipPath>
</defs>
</svg>
